<?xml version="1.0" standalone="no"?>
<!DOCTYPE svg PUBLIC "-//W3C//DTD SVG 20010904//EN"
 "http://www.w3.org/TR/2001/REC-SVG-20010904/DTD/svg10.dtd">
<svg version="1.0" xmlns="http://www.w3.org/2000/svg"
 width="2652.000000pt" height="2652.000000pt" viewBox="0 0 2652.000000 2652.000000"
 preserveAspectRatio="xMidYMid meet">
<metadata>
Created by potrace 1.14, written by Peter Selinger 2001-2017
</metadata>
<g transform="translate(0.000000,2652.000000) scale(0.100000,-0.100000)"
fill="#000000" stroke="none">
<path d="M13530 25884 c0 -11 -63 -30 -82 -26 -5 1 -8 -2 -8 -8 0 -5 -7 -10
-15 -10 -8 0 -15 -5 -15 -11 0 -6 -7 -9 -15 -5 -8 3 -15 1 -15 -5 0 -6 -4 -7
-10 -4 -5 3 -10 1 -10 -5 0 -7 -7 -10 -14 -7 -9 4 -18 -2 -22 -15 -4 -15 -8
-17 -14 -8 -5 9 -9 9 -14 1 -5 -7 -13 -8 -25 -1 -12 6 -22 5 -29 -2 -9 -9 -12
-9 -12 0 0 7 -5 12 -11 12 -5 0 -7 -4 -4 -10 4 -6 -2 -7 -17 -1 -15 6 -31 5
-42 -1 -14 -8 -17 -7 -12 1 9 13 -3 14 -23 2 -9 -6 -21 -5 -33 2 -15 10 -21 9
-28 -3 -6 -10 -10 -11 -10 -2 0 6 -5 12 -11 12 -5 0 -8 -4 -5 -9 3 -4 -6 -7
-19 -5 -14 1 -27 -1 -30 -6 -3 -4 -18 -7 -34 -6 -17 1 -28 -1 -25 -5 2 -4 -5
-7 -16 -6 -11 1 -20 5 -20 10 0 5 -8 3 -17 -4 -10 -9 -14 -9 -10 -2 5 8 -2 7
-20 -2 -15 -8 -31 -15 -35 -15 -4 0 -19 -11 -34 -25 -19 -18 -31 -22 -38 -15
-5 5 -34 10 -62 10 -42 0 -56 4 -67 20 -23 33 -87 60 -114 47 -12 -5 -20 -14
-16 -20 4 -6 1 -7 -8 -1 -8 5 -23 9 -34 9 -11 1 -19 5 -18 10 2 13 -74 18 -81
6 -3 -5 -28 -3 -58 4 -29 7 -62 11 -74 9 -21 -3 -85 -34 -71 -34 5 0 1 -8 -8
-17 -19 -19 -107 -22 -113 -4 -2 6 -19 11 -39 11 -25 0 -43 -8 -64 -29 -16
-16 -29 -27 -29 -23 0 3 -5 1 -11 -5 -13 -13 -42 -6 -33 8 3 5 -8 9 -25 9 -16
0 -31 -5 -33 -12 -3 -8 -10 -5 -22 8 -40 47 -125 -25 -110 -94 3 -15 12 -44
20 -64 20 -54 12 -64 -45 -60 -27 2 -58 -1 -70 -7 -12 -7 -21 -8 -21 -3 0 4
-18 9 -41 11 -22 1 -39 -2 -36 -6 8 -13 -90 -15 -113 -3 -11 6 -20 7 -20 1 0
-5 -9 -7 -19 -4 -19 5 -27 -1 -90 -71 -30 -33 -81 -62 -81 -45 0 9 -4 8 -14 0
-9 -8 -15 -8 -18 -1 -1 5 -23 -8 -47 -29 -47 -42 -53 -42 -110 -4 -35 24 -129
34 -116 13 4 -6 -20 -10 -64 -10 -104 0 -118 -9 -155 -102 -8 -21 -21 -38 -28
-38 -8 0 -20 -9 -28 -21 -33 -47 -46 -56 -75 -54 -16 1 -47 -1 -67 -5 -25 -5
-46 -3 -64 6 -34 18 -83 18 -128 -1 -20 -8 -38 -15 -41 -16 -2 0 -17 -4 -33
-8 -19 -6 -34 -4 -47 5 -22 16 -102 19 -107 4 -2 -6 -46 -10 -108 -10 -58 0
-120 0 -139 -1 -71 0 -135 -51 -172 -136 -13 -31 -13 -31 -41 -15 -15 9 -28
20 -28 24 0 14 -51 58 -61 53 -5 -4 -9 -1 -9 4 0 6 -18 11 -40 11 -22 0 -40
-3 -40 -7 0 -9 -49 -33 -67 -33 -7 0 -13 -5 -13 -12 0 -9 -3 -9 -12 0 -39 39
-120 -9 -151 -89 -14 -37 -24 -47 -61 -62 -24 -10 -53 -19 -65 -20 -12 -1 -21
-5 -21 -9 0 -4 -13 -8 -28 -8 -16 0 -38 -9 -49 -19 -12 -11 -23 -17 -27 -14
-3 3 -9 -3 -13 -13 -4 -10 -13 -25 -20 -32 -7 -7 -13 -24 -13 -38 0 -13 -1
-27 -1 -31 -3 -14 -44 -38 -69 -39 -14 -2 -25 -3 -25 -4 0 -1 -8 -3 -18 -5 -9
-2 -15 1 -11 6 10 16 -103 15 -146 -1 -14 -6 -38 -12 -55 -13 -16 -2 -43 -9
-60 -16 -16 -8 -42 -15 -57 -16 -34 -3 -105 -54 -112 -80 -3 -11 -6 -32 -6
-46 0 -27 -31 -64 -44 -52 -13 13 -168 10 -197 -4 -34 -17 -42 -28 -59 -82
-12 -36 -21 -46 -55 -61 -22 -9 -58 -17 -80 -18 -27 -1 -47 -9 -65 -27 -22
-23 -25 -35 -29 -110 -2 -64 -6 -85 -17 -85 -8 0 -14 5 -14 10 0 6 -7 10 -15
10 -8 0 -15 4 -15 8 0 5 -18 15 -40 22 -33 11 -45 11 -68 0 -15 -8 -30 -14
-34 -14 -3 -1 -9 -4 -13 -8 -8 -8 -55 12 -55 24 0 4 -17 8 -38 8 -32 0 -45 -7
-71 -35 -17 -19 -29 -35 -25 -35 4 0 2 -6 -4 -12 -5 -7 -12 -28 -15 -46 -3
-18 -10 -39 -16 -46 -6 -7 -8 -15 -5 -19 7 -7 -12 -4 -45 7 -16 6 -26 4 -32
-5 -7 -11 -9 -11 -9 -1 0 20 -50 -17 -61 -45 -8 -22 -14 -24 -64 -21 -30 2
-55 6 -55 9 0 14 -75 -20 -85 -38 -5 -10 -13 -20 -17 -23 -3 -3 -9 -27 -13
-55 -12 -79 -33 -92 -97 -57 -28 15 -41 16 -89 7 -59 -11 -105 -38 -115 -68
-3 -9 -9 -15 -14 -12 -7 4 -23 -21 -17 -28 1 -2 -13 -16 -31 -32 -18 -17 -34
-37 -36 -45 -2 -8 -5 -22 -8 -30 -3 -8 -9 -28 -14 -45 -7 -22 -15 -30 -32 -29
-12 1 -19 -2 -17 -6 3 -5 -8 -14 -25 -22 -16 -7 -30 -18 -30 -25 0 -7 -8 -28
-17 -48 l-17 -35 -34 21 c-45 26 -100 33 -137 18 -17 -7 -47 -14 -68 -15 -46
-3 -58 -12 -92 -70 -22 -37 -26 -57 -27 -125 -1 -58 -5 -84 -15 -92 -8 -7 -26
-23 -40 -35 -40 -37 -65 -36 -114 3 -36 28 -53 35 -91 35 -28 0 -48 -5 -50
-12 -3 -9 -20 -5 -56 15 -28 15 -54 28 -57 27 -3 0 -8 0 -12 1 -24 4 -58 -5
-70 -17 -8 -8 -19 -14 -24 -14 -5 0 -8 -3 -7 -7 7 -25 -16 -49 -59 -63 -63
-20 -85 -57 -84 -142 0 -50 -4 -65 -21 -80 -12 -10 -25 -18 -30 -18 -4 0 -8
-7 -8 -15 0 -8 -5 -15 -11 -15 -5 0 -8 -4 -5 -9 7 -11 -28 -43 -37 -34 -4 3
-7 1 -7 -6 0 -7 -4 -10 -8 -7 -17 10 -79 -43 -85 -71 -9 -47 1 -112 22 -149
27 -46 26 -59 -4 -62 -14 -1 -25 2 -25 6 0 9 -1 9 -70 12 -92 2 -147 -19 -170
-66 -15 -31 -50 -72 -50 -58 0 4 -11 -3 -25 -16 -14 -13 -25 -29 -25 -36 0 -7
-5 -14 -10 -16 -6 -2 -12 -16 -14 -31 -1 -15 -6 -30 -9 -34 -10 -10 2 -53 33
-113 15 -30 30 -75 34 -98 4 -24 16 -62 27 -84 15 -29 19 -50 14 -72 -4 -17
-9 -44 -11 -61 -7 -41 -25 -75 -40 -75 -24 0 -43 -44 -43 -95 1 -28 0 -54 -1
-60 -1 -5 -2 -13 -1 -17 1 -10 -44 -39 -55 -37 -11 3 -93 -36 -116 -54 -9 -7
-24 -32 -33 -55 -10 -23 -20 -42 -24 -42 -12 0 -58 -45 -70 -69 -19 -35 -6
-119 23 -146 48 -45 59 -92 26 -113 -11 -7 -20 -9 -20 -4 0 9 -70 15 -180 14
-69 0 -93 -4 -122 -22 -32 -18 -88 -79 -88 -94 0 -3 -15 -20 -33 -38 -18 -18
-32 -37 -33 -43 0 -5 -5 -28 -12 -50 -6 -22 -13 -69 -16 -105 -3 -46 -14 -83
-36 -127 -27 -54 -38 -109 -30 -148 6 -29 -1 -36 -32 -31 -18 3 -34 10 -36 16
-2 5 -8 8 -13 4 -8 -4 -13 8 -11 27 1 3 -20 6 -46 8 -36 1 -55 -4 -79 -22 -18
-13 -29 -27 -25 -31 4 -4 0 -6 -8 -4 -8 1 -18 8 -22 13 -5 6 -8 6 -8 -2 0 -11
-24 -12 -36 -1 -11 12 -71 -35 -82 -64 -5 -15 -17 -28 -26 -28 -17 0 -52 -17
-73 -37 -12 -11 -48 -7 -68 7 -11 8 -81 23 -105 23 -21 0 -52 -13 -72 -30 -9
-8 -22 -12 -27 -8 -6 3 -11 1 -11 -6 0 -10 -3 -10 -11 -2 -7 7 -18 8 -28 3 -9
-4 -28 -13 -43 -20 -15 -7 -30 -21 -33 -31 -3 -9 -25 -23 -50 -30 -25 -7 -45
-17 -45 -21 0 -4 -7 -8 -15 -8 -39 0 -59 -124 -29 -182 17 -33 43 -115 48
-153 5 -32 -22 -73 -59 -91 -19 -9 -33 -20 -30 -24 3 -5 1 -11 -5 -15 -5 -3
-10 -15 -10 -25 0 -10 -9 -21 -19 -25 -20 -6 -61 13 -61 27 0 5 -7 8 -15 8 -8
0 -15 4 -15 8 0 11 -74 52 -93 52 -8 0 -17 5 -19 10 -2 6 -14 11 -28 12 -14 1
-31 6 -38 11 -7 6 -12 6 -12 0 0 -5 -10 -9 -22 -8 -37 3 -87 -17 -101 -39 -8
-12 -14 -38 -14 -59 0 -21 -7 -47 -16 -58 -10 -10 -17 -24 -17 -30 0 -5 -4 -8
-8 -5 -14 9 -55 -31 -66 -65 -6 -19 -26 -43 -46 -57 -44 -29 -48 -37 -53 -96
-3 -26 -6 -49 -8 -50 -2 -2 -29 -6 -59 -9 -96 -9 -133 -27 -155 -77 -17 -38
-59 -83 -68 -74 -3 3 -15 -10 -28 -28 -13 -18 -27 -36 -32 -39 -5 -3 -8 -9 -7
-13 1 -4 -4 -21 -11 -39 -6 -18 -11 -36 -9 -42 8 -34 6 -92 -5 -105 -15 -18
-16 -52 -1 -62 8 -6 8 -8 -1 -8 -15 0 18 -69 46 -94 26 -24 27 -51 2 -68 -10
-7 -29 -35 -41 -61 -12 -26 -34 -54 -49 -62 -14 -8 -22 -14 -18 -15 4 0 -1
-10 -13 -22 -24 -26 -27 -95 -5 -124 22 -29 19 -64 -5 -64 -24 0 -94 -70 -82
-82 11 -11 3 -58 -10 -58 -5 0 -7 -4 -3 -9 3 -5 -2 -16 -10 -24 -10 -11 -15
-35 -14 -79 1 -84 -9 -118 -43 -150 -16 -15 -27 -32 -23 -38 3 -5 2 -10 -2
-10 -5 0 -10 -18 -11 -40 -2 -23 -7 -52 -12 -66 -6 -14 -10 -47 -10 -74 l0
-49 -42 -12 c-86 -22 -108 -49 -114 -139 -2 -34 -8 -68 -14 -75 -5 -6 -7 -15
-4 -18 4 -3 -1 -13 -9 -22 -17 -16 -15 -77 3 -83 5 -2 10 -9 10 -16 0 -7 16
-27 35 -45 35 -32 44 -54 25 -66 -6 -4 -8 -11 -5 -16 4 -5 1 -9 -4 -9 -6 0
-11 -20 -11 -45 0 -25 3 -45 8 -45 9 0 13 -51 5 -70 -14 -33 -10 -76 10 -97
11 -13 24 -23 29 -23 4 0 22 -12 38 -26 22 -21 28 -33 24 -50 -4 -16 -2 -24 7
-24 9 -1 8 -4 -4 -11 -16 -9 -16 -12 -1 -26 12 -13 13 -17 2 -24 -7 -5 -9 -9
-4 -9 21 0 -30 -29 -51 -30 -13 0 -23 -4 -23 -9 0 -5 -8 -12 -19 -16 -10 -3
-26 -24 -36 -46 -16 -34 -17 -45 -7 -73 15 -42 15 -56 -1 -56 -13 0 -40 -72
-29 -80 4 -3 8 -14 9 -25 0 -11 4 -31 7 -45 7 -30 104 -127 131 -132 11 -1 22
-5 25 -8 3 -3 20 -12 39 -21 l35 -15 -21 -21 c-12 -12 -19 -24 -15 -27 3 -3
-2 -6 -10 -6 -17 0 -38 -48 -34 -77 2 -10 -1 -31 -6 -48 -4 -16 -11 -43 -14
-60 -3 -16 -10 -33 -16 -36 -7 -5 -12 -40 -13 -88 0 -68 -4 -83 -20 -95 -11
-9 -25 -16 -32 -16 -6 0 -18 -9 -26 -20 -8 -11 -16 -18 -19 -15 -2 2 -13 -14
-24 -38 -16 -33 -19 -49 -12 -75 5 -18 12 -31 17 -28 4 3 8 0 9 -7 0 -7 3 -22
6 -34 2 -13 0 -23 -6 -23 -5 0 -7 -7 -4 -16 3 -9 2 -12 -5 -9 -7 5 -9 -8 -6
-36 3 -30 12 -49 30 -65 14 -12 23 -25 20 -28 -4 -3 3 -6 13 -6 11 0 24 -4 30
-10 5 -5 19 -11 30 -13 28 -4 74 -35 74 -49 0 -6 7 -16 17 -23 20 -15 25 -72
6 -79 -8 -3 -11 -10 -8 -16 3 -5 2 -10 -4 -10 -16 0 -18 -34 -1 -48 8 -8 9
-11 2 -7 -15 8 -15 0 -1 -26 8 -16 7 -26 -5 -44 -16 -25 -19 -95 -4 -95 5 0 7
-3 4 -8 -2 -4 2 -16 10 -27 8 -10 14 -15 14 -11 0 5 8 -1 18 -13 11 -13 31
-21 55 -23 20 -1 37 -5 37 -9 0 -3 28 -7 63 -8 102 -3 112 -5 119 -24 5 -11 2
-28 -8 -42 -9 -13 -13 -28 -10 -34 3 -5 -1 -12 -10 -15 -9 -4 -14 -13 -10 -21
3 -8 2 -15 -2 -15 -5 0 -8 -11 -8 -25 0 -14 4 -25 9 -25 4 0 5 -5 2 -10 -3 -5
-1 -10 5 -10 6 0 9 -4 6 -9 -3 -5 1 -11 9 -15 8 -3 15 -12 15 -21 0 -8 7 -15
16 -15 9 0 12 -5 8 -12 -5 -8 0 -7 11 2 10 8 16 10 12 3 -4 -6 -1 -18 7 -26 8
-8 12 -17 9 -21 -4 -3 -1 -6 7 -6 10 0 10 -4 -1 -17 -12 -15 -12 -16 4 -10 14
5 16 3 10 -11 -21 -46 6 -102 50 -102 19 0 26 -4 21 -12 -5 -7 -3 -8 7 -2 8 4
30 9 50 10 34 1 38 -1 41 -27 3 -16 0 -33 -6 -39 -5 -5 -7 -10 -3 -10 4 0 1
-13 -7 -28 -9 -17 -11 -34 -6 -42 5 -8 6 -18 4 -22 -3 -4 0 -8 6 -8 6 0 9 -4
5 -9 -3 -5 4 -12 15 -16 11 -3 20 -11 20 -16 0 -6 4 -8 9 -5 11 7 25 -49 16
-64 -3 -5 -1 -10 5 -10 6 0 9 -4 6 -9 -5 -8 40 -26 57 -23 4 1 7 -5 7 -13 0
-8 5 -15 11 -15 6 0 9 -6 6 -14 -3 -8 -1 -16 4 -18 5 -2 11 -13 12 -25 0 -12
4 -20 8 -17 12 7 19 -26 12 -54 -3 -15 -13 -32 -22 -39 -13 -10 -13 -12 -2
-13 11 0 10 -4 -4 -13 -10 -8 -15 -19 -11 -25 4 -7 1 -12 -6 -12 -9 0 -9 -3 2
-10 13 -8 13 -10 -1 -10 -10 0 -15 -8 -14 -22 1 -13 -2 -31 -6 -40 -6 -10 -5
-19 1 -23 6 -4 8 -11 5 -16 -4 -5 -1 -17 4 -26 6 -10 11 -14 11 -8 0 5 7 -1
16 -13 13 -18 19 -21 30 -11 10 8 14 8 14 1 0 -6 7 -9 15 -6 8 4 15 1 15 -6 0
-6 5 -8 10 -5 6 3 10 1 10 -4 0 -6 7 -11 15 -11 8 0 14 -3 14 -7 -4 -23 2 -43
11 -38 6 3 10 -2 10 -12 0 -10 4 -14 8 -8 4 6 14 10 22 10 8 0 18 -4 22 -10 5
-6 8 -4 8 5 0 13 1 13 10 0 8 -12 10 -12 16 4 5 13 9 14 15 5 6 -10 11 -10 25
2 11 9 15 9 10 2 -6 -12 5 -18 26 -14 5 0 7 -2 7 -7 -3 -19 2 -33 10 -28 5 3
14 -1 21 -9 9 -11 17 -12 30 -5 25 13 33 13 24 -2 -4 -7 1 -6 12 3 10 9 25 14
32 12 7 -3 19 0 26 6 11 9 15 9 19 -1 4 -10 6 -10 6 0 1 6 11 12 23 12 12 0
19 -3 15 -6 -7 -7 24 -44 34 -39 4 3 6 -3 5 -12 0 -10 8 -19 19 -21 35 -7 47
-22 33 -40 -10 -12 -10 -14 -1 -9 9 6 8 -3 -2 -28 -9 -19 -12 -35 -9 -35 4 0
1 -7 -6 -15 -7 -9 -10 -18 -7 -21 3 -4 -3 -16 -14 -27 -13 -14 -16 -24 -9 -31
6 -6 4 -16 -6 -27 -22 -24 -27 -114 -8 -130 8 -6 14 -17 14 -23 0 -14 54 -38
86 -38 13 0 27 -4 30 -9 3 -5 16 -9 30 -9 18 0 24 -6 25 -22 1 -19 2 -19 6 -5
5 18 6 18 24 1 11 -10 19 -12 19 -6 0 7 3 11 7 11 5 -1 11 0 16 1 11 4 26 7
36 9 5 0 16 7 23 14 19 16 56 37 67 37 6 0 13 -17 17 -37 4 -21 11 -44 17 -50
5 -7 7 -13 3 -13 -9 0 25 -52 48 -72 10 -10 23 -15 27 -12 5 3 9 1 9 -5 0 -5
8 -8 18 -6 9 2 21 4 25 4 5 1 5 6 1 13 -4 7 -3 8 4 4 7 -4 19 -3 29 2 10 6 27
6 47 -1 22 -8 31 -7 34 2 3 9 7 9 18 0 10 -8 14 -8 14 0 0 38 55 -46 64 -98 2
-8 9 -19 17 -25 8 -6 15 -17 17 -25 3 -15 32 -47 32 -35 0 4 7 -1 16 -12 8
-10 12 -12 8 -4 -6 11 -2 10 13 -3 11 -9 23 -14 26 -10 4 3 7 1 7 -5 0 -6 9
-10 20 -9 11 1 19 6 17 12 -4 8 53 12 73 5 11 -5 46 2 56 11 6 5 14 5 19 1 4
-4 6 0 3 8 -11 34 64 74 84 45 5 -6 8 -6 8 2 0 6 11 10 25 8 16 -1 25 3 25 11
0 8 5 14 10 14 15 0 32 49 33 97 1 26 5 39 11 35 6 -3 6 1 -1 9 -7 9 -9 20 -3
29 6 9 4 20 -3 29 -14 16 -13 21 5 32 10 7 10 9 0 9 -7 0 -11 4 -7 9 3 5 1 12
-5 16 -5 3 -10 13 -10 22 0 27 -38 98 -70 132 -17 17 -30 36 -30 43 0 6 -3 9
-6 5 -8 -8 -54 59 -54 78 0 8 -5 15 -11 15 -5 0 -7 5 -4 10 3 6 1 10 -5 10
-19 0 -61 49 -71 83 -13 47 -12 52 19 67 30 15 60 14 81 -3 9 -7 12 -8 8 -1
-3 6 9 16 28 23 37 13 115 12 115 -2 0 -4 4 -6 10 -2 5 3 14 -12 21 -34 7 -22
16 -38 20 -35 5 3 9 -1 9 -9 0 -33 92 -95 137 -92 18 1 30 -2 27 -6 -3 -5 3
-9 12 -9 10 0 14 -3 10 -7 -3 -4 6 -12 21 -19 21 -8 32 -8 42 0 8 6 16 10 18
9 18 -14 113 59 113 86 0 6 10 11 22 11 12 0 19 3 15 6 -7 8 17 34 32 34 10 0
15 17 14 48 -1 6 3 12 8 12 5 0 5 10 0 23 -5 14 -5 30 0 40 6 10 6 17 1 17
-21 0 -4 51 26 76 17 15 29 31 26 36 -3 4 -2 8 3 7 4 -2 20 4 36 11 25 12 31
22 28 43 0 4 6 7 14 7 11 0 14 7 11 25 -3 13 -7 29 -10 33 -3 5 -8 26 -10 47
-4 31 0 43 18 62 14 14 22 33 21 51 -1 25 1 28 22 24 17 -3 26 -13 30 -34 3
-16 15 -35 27 -43 11 -8 17 -15 13 -15 -4 0 2 -10 13 -22 12 -13 24 -22 26
-20 3 2 12 -5 20 -15 12 -16 15 -16 24 -3 6 10 10 11 10 3 0 -16 80 -15 80 1
0 6 5 3 11 -7 6 -9 14 -15 20 -12 5 4 9 2 9 -4 0 -5 10 -8 21 -6 12 3 19 2 15
-2 -8 -9 14 -34 25 -27 5 3 9 1 9 -4 0 -14 59 -21 64 -8 2 6 5 3 5 -7 1 -10 6
-15 11 -12 6 4 8 11 5 16 -3 5 1 6 9 3 9 -3 13 -10 10 -16 -11 -17 40 16 74
49 26 25 35 43 38 75 4 50 22 88 40 88 16 0 51 50 49 70 -1 8 2 25 7 38 5 15
4 21 -2 17 -12 -7 -13 5 -1 23 8 14 79 14 87 0 3 -4 15 -8 27 -8 13 0 29 -9
37 -20 8 -11 22 -20 32 -20 10 0 18 -5 18 -11 0 -5 5 -7 10 -4 6 3 13 0 16 -8
3 -8 23 -20 44 -27 22 -7 37 -17 34 -21 -3 -5 1 -9 9 -9 8 0 22 -9 32 -20 10
-11 25 -20 33 -20 8 0 23 -10 33 -22 11 -11 19 -16 19 -9 0 8 5 7 16 -3 8 -9
19 -14 24 -11 4 3 7 -3 6 -12 -1 -10 10 -19 32 -25 18 -5 35 -15 39 -23 3 -8
14 -15 24 -15 10 0 19 -4 19 -10 0 -5 7 -10 16 -10 8 0 12 -4 9 -10 -3 -5 0
-10 8 -10 8 0 22 -9 32 -20 10 -11 24 -20 31 -20 7 0 16 -9 19 -20 3 -11 13
-20 21 -20 8 0 14 -3 14 -7 0 -13 47 -63 52 -57 3 2 17 -9 31 -26 14 -16 29
-30 33 -30 11 0 52 -48 46 -54 -3 -3 0 -6 7 -6 17 0 42 -26 33 -35 -4 -4 -2
-6 3 -5 18 4 35 0 33 -7 -4 -14 26 -53 40 -53 7 0 11 -4 8 -8 -2 -4 -1 -14 4
-22 7 -11 15 -12 47 -1 35 11 43 11 73 -7 19 -10 34 -26 34 -35 -1 -8 4 -13
10 -11 7 3 24 -6 39 -20 14 -13 29 -21 33 -17 4 3 4 -4 1 -16 -3 -13 -1 -23 4
-23 5 0 9 5 9 11 0 6 9 1 21 -12 11 -13 17 -17 13 -9 -4 8 4 4 18 -10 13 -14
23 -28 21 -32 -2 -5 3 -8 11 -8 9 0 16 -4 16 -10 0 -5 4 -10 9 -10 13 0 76
-62 74 -72 -2 -4 6 -8 17 -8 11 0 20 -4 20 -9 0 -16 92 -101 103 -94 6 3 7 1
3 -6 -4 -6 0 -14 8 -17 9 -3 13 -11 10 -16 -4 -6 -1 -9 7 -6 17 6 39 -15 40
-39 0 -10 3 -13 5 -6 6 13 54 -27 54 -45 0 -6 5 -14 12 -18 7 -4 8 -3 4 4 -4
7 -2 12 3 12 6 0 11 -5 11 -10 0 -6 23 -32 50 -59 28 -27 50 -54 50 -60 0 -6
3 -10 8 -8 9 3 72 -62 72 -75 0 -5 4 -6 10 -3 6 3 10 1 10 -4 0 -6 18 -24 40
-40 21 -15 36 -31 33 -35 -3 -3 0 -6 7 -6 7 0 10 -3 7 -6 -7 -7 61 -74 76 -74
4 0 5 -4 2 -10 -3 -5 1 -10 9 -10 9 0 16 -5 16 -12 0 -7 10 -22 23 -33 27 -24
61 -91 52 -105 -3 -6 -1 -10 6 -10 6 0 9 -8 6 -19 -3 -12 1 -22 9 -25 8 -3 14
-20 14 -41 0 -19 4 -35 9 -35 5 0 8 -14 7 -30 -1 -16 1 -30 6 -30 4 0 5 -7 2
-15 -4 -9 1 -18 11 -21 13 -5 14 -9 4 -15 -10 -6 -9 -9 4 -15 14 -5 15 -9 6
-20 -9 -11 -8 -14 7 -14 16 0 17 -2 4 -10 -11 -7 -11 -10 -2 -10 7 0 10 -4 7
-10 -3 -6 -2 -10 4 -10 6 0 8 -7 5 -15 -4 -9 1 -18 11 -21 13 -5 14 -9 3 -15
-10 -7 -10 -9 0 -9 6 0 12 -7 12 -16 0 -8 4 -12 10 -9 6 4 6 -3 0 -21 -8 -21
-8 -25 3 -21 9 3 14 -1 14 -11 0 -36 3 -41 21 -35 14 5 13 3 -3 -10 -12 -10
-15 -16 -7 -17 7 0 11 -4 7 -9 -3 -5 -1 -12 4 -16 6 -3 8 -12 4 -20 -3 -10 1
-15 13 -15 16 0 17 -2 4 -10 -12 -8 -10 -10 10 -11 14 0 19 -3 12 -6 -10 -4
-9 -8 5 -19 20 -15 67 -19 59 -5 -3 5 1 14 8 20 8 7 13 23 11 37 -2 18 2 24
11 20 8 -3 14 -1 14 4 0 6 9 6 23 1 12 -5 21 -13 20 -18 -1 -5 7 -10 19 -10
11 -1 28 -11 37 -22 10 -11 21 -18 24 -15 3 3 10 -3 16 -14 6 -11 7 -23 3 -27
-4 -3 -2 -6 3 -5 6 1 16 2 24 1 11 -1 11 -4 0 -18 -8 -9 -9 -14 -4 -11 6 3 16
0 23 -8 10 -11 10 -14 0 -14 -7 -1 -3 -6 10 -13 12 -7 20 -16 16 -20 -4 -3 -2
-12 4 -19 6 -7 12 -27 15 -43 6 -45 26 -87 37 -80 5 3 10 2 10 -2 0 -5 8 -9
19 -9 10 0 34 21 56 51 20 27 38 48 38 46 4 -9 47 11 47 21 0 6 3 9 6 5 4 -3
13 1 21 9 8 8 19 11 25 8 6 -4 8 -2 4 4 -3 6 7 16 24 24 17 7 33 20 35 30 5
12 17 16 55 15 36 -2 49 2 46 10 -3 7 1 10 9 6 8 -3 13 -9 10 -13 -3 -5 0 -12
6 -16 7 -4 9 -3 6 3 -4 6 3 13 14 16 12 3 18 3 15 0 -10 -10 15 -32 30 -26 8
3 14 -1 14 -8 0 -11 3 -11 10 1 8 13 10 12 10 -3 0 -10 5 -15 11 -12 6 4 17
-1 25 -11 9 -11 13 -13 9 -4 -4 10 -2 9 8 -2 8 -10 20 -18 28 -18 8 0 5 -5 -7
-15 -18 -13 -18 -14 6 -9 14 2 20 2 13 -2 -10 -4 -10 -8 0 -19 7 -7 17 -10 22
-7 6 3 4 -2 -4 -11 -9 -11 -10 -17 -2 -17 6 0 10 -3 10 -7 -4 -22 2 -33 14
-27 7 5 6 0 -3 -11 -10 -12 -11 -20 -4 -22 6 -2 9 -15 6 -28 -3 -16 0 -25 8
-25 10 0 10 -3 0 -15 -11 -13 -10 -14 5 -9 13 5 16 4 11 -4 -4 -7 -1 -12 6
-13 7 0 4 -4 -7 -9 -18 -8 -19 -9 -1 -9 12 -1 16 -6 12 -16 -3 -8 -1 -15 5
-15 6 0 7 -5 4 -10 -4 -6 -11 -8 -16 -4 -6 3 -5 -3 2 -14 7 -12 19 -18 28 -15
11 4 11 1 -3 -9 -16 -13 -17 -16 -3 -30 12 -12 13 -18 4 -28 -9 -10 -9 -11 1
-6 8 5 12 -2 12 -23 0 -17 4 -31 8 -31 4 0 7 -18 6 -40 -1 -33 1 -38 12 -29
10 8 14 8 14 1 0 -6 -5 -14 -10 -17 -6 -4 -4 -12 6 -22 11 -12 12 -18 4 -23
-9 -6 -9 -9 1 -12 12 -4 12 -8 0 -22 -12 -14 -12 -17 -1 -14 9 2 14 -8 15 -27
4 -54 14 -90 30 -101 12 -9 13 -13 3 -17 -10 -4 -10 -7 1 -18 12 -12 13 -12 6
1 -5 8 -4 11 0 7 12 -10 15 -38 4 -32 -5 4 -6 -1 -3 -9 3 -9 9 -14 13 -11 4 2
8 -2 8 -10 0 -8 -4 -12 -9 -9 -4 3 -8 1 -8 -5 0 -5 6 -12 13 -14 9 -4 9 -6 -1
-6 -10 -1 -9 -5 3 -17 13 -14 14 -19 3 -25 -9 -6 -8 -9 7 -9 17 0 17 -2 5 -10
-12 -8 -12 -10 -1 -10 11 0 11 -3 1 -16 -11 -12 -10 -18 3 -30 9 -8 12 -9 7
-2 -6 7 -10 16 -10 22 0 5 6 1 14 -9 8 -11 11 -24 8 -30 -11 -17 -11 -35 0
-42 7 -4 8 -1 3 7 -5 8 -4 11 3 6 6 -4 8 -14 5 -23 -4 -10 -2 -14 4 -10 5 3
10 0 10 -8 0 -8 -3 -12 -7 -10 -4 2 -7 -3 -7 -11 0 -8 6 -13 13 -10 9 3 11 -1
7 -11 -4 -10 -2 -14 4 -10 5 3 10 1 10 -6 4 -57 12 -119 17 -124 3 -3 3 -17
-1 -31 -4 -19 -3 -23 7 -17 9 6 12 4 8 -7 -4 -8 -2 -21 2 -29 5 -7 5 -18 -1
-25 -6 -8 -5 -14 6 -17 8 -4 12 -13 9 -21 -3 -8 0 -17 5 -21 6 -3 9 -11 5 -16
-3 -5 0 -16 6 -24 7 -8 10 -24 7 -35 -3 -11 -2 -20 2 -20 4 0 8 -14 9 -32 2
-18 8 -36 15 -40 9 -6 8 -8 -3 -8 -12 0 -13 -2 -1 -9 11 -7 11 -9 0 -14 -10
-4 -10 -6 -1 -6 6 -1 12 -13 12 -27 0 -17 4 -23 13 -18 8 5 8 2 -2 -9 -10 -13
-10 -17 -1 -17 10 0 10 -3 0 -15 -10 -12 -10 -15 0 -15 10 0 10 -3 0 -15 -7
-9 -8 -15 -2 -15 5 0 9 -13 8 -29 -1 -17 1 -28 5 -25 4 2 10 0 14 -6 3 -5 -2
-10 -11 -10 -16 0 -16 -1 2 -16 10 -8 12 -12 4 -8 -13 7 -13 5 -1 -9 9 -12 10
-17 2 -17 -7 0 -9 -5 -4 -12 4 -7 6 -20 5 -29 -2 -9 4 -19 13 -23 9 -3 13 -11
9 -18 -4 -6 -8 -33 -8 -60 -1 -38 -4 -47 -16 -43 -11 4 -10 1 2 -8 15 -12 16
-16 4 -33 -10 -13 -11 -23 -4 -31 7 -9 7 -13 0 -13 -6 0 -9 -9 -7 -19 5 -28
-6 -62 -18 -54 -6 4 -7 1 -2 -8 11 -17 14 -50 4 -44 -10 7 -22 -34 -20 -73 0
-18 -3 -30 -8 -27 -5 3 -8 -3 -6 -12 1 -10 -2 -23 -7 -30 -5 -7 -7 -17 -3 -23
3 -5 2 -10 -2 -10 -5 0 -9 -8 -10 -17 -1 -10 -3 -25 -6 -33 -2 -8 -8 -34 -12
-57 -4 -24 -11 -40 -15 -38 -5 3 -6 -3 -3 -14 3 -10 0 -22 -5 -25 -6 -3 -8
-15 -5 -26 3 -11 1 -20 -5 -20 -6 0 -9 -9 -7 -20 2 -11 0 -20 -6 -20 -5 0 -8
-3 -8 -8 5 -28 -2 -52 -13 -46 -7 4 -10 4 -6 0 3 -4 0 -28 -7 -54 -8 -25 -12
-49 -9 -54 3 -4 -1 -11 -10 -14 -9 -3 -12 -12 -9 -21 4 -11 2 -14 -5 -9 -16
10 -15 -6 1 -23 10 -11 9 -13 0 -7 -8 4 -13 1 -13 -8 0 -9 -6 -16 -12 -16 -9
0 -8 -4 2 -10 8 -5 10 -10 4 -10 -7 0 -15 -7 -18 -16 -4 -10 -2 -13 7 -8 9 6
9 5 0 -8 -7 -8 -10 -18 -6 -21 3 -4 1 -7 -6 -7 -7 0 -9 -4 -6 -10 3 -5 1 -10
-6 -10 -7 0 -10 -3 -6 -6 3 -3 -1 -24 -9 -46 -7 -22 -11 -44 -8 -49 3 -5 -3
-9 -13 -9 -14 0 -15 -2 -4 -9 11 -7 10 -11 -5 -20 -11 -6 -13 -11 -6 -11 9 0
6 -7 -6 -20 -11 -12 -18 -32 -16 -45 1 -14 -1 -25 -4 -25 -4 0 -12 -11 -19
-25 -8 -19 -8 -24 0 -19 7 3 3 -2 -7 -10 -15 -12 -16 -16 -5 -16 11 0 11 -2 1
-9 -7 -4 -14 -14 -15 -22 -2 -8 -7 -21 -12 -29 -5 -8 -10 -21 -11 -30 -2 -8
-4 -24 -6 -35 -2 -11 -10 -25 -18 -32 -8 -7 -11 -13 -6 -13 5 0 2 -8 -5 -17
-8 -10 -9 -14 -2 -10 7 4 5 -6 -5 -25 -9 -18 -17 -44 -18 -57 -2 -13 -9 -28
-16 -32 -7 -5 -10 -9 -6 -9 4 0 1 -18 -7 -39 -7 -22 -11 -42 -8 -45 4 -3 1 -6
-5 -6 -6 0 -9 -9 -7 -20 2 -11 -1 -20 -6 -20 -6 0 -7 -4 -4 -10 3 -5 2 -10 -2
-10 -8 0 -12 -15 -15 -57 -1 -7 -4 -13 -8 -13 -4 0 -6 -11 -5 -25 2 -14 -1
-25 -6 -25 -6 0 -7 -4 -4 -10 3 -5 2 -10 -3 -10 -6 0 -8 -9 -5 -20 3 -11 0
-20 -6 -20 -6 0 -10 -3 -9 -8 3 -14 -15 -67 -26 -74 -7 -5 -6 -8 4 -8 8 0 4
-6 -10 -13 -21 -11 -27 -11 -36 1 -9 13 -12 12 -19 -4 -5 -10 -9 -35 -10 -54
-2 -19 -4 -53 -5 -75 -1 -22 -9 -64 -17 -93 -7 -29 -11 -58 -7 -64 5 -7 3 -8
-6 -3 -10 6 -12 4 -7 -8 3 -10 2 -17 -3 -17 -6 0 -10 -5 -10 -12 0 -14 -51
-121 -62 -128 -7 -6 -37 -82 -38 -98 -2 -50 -63 -212 -82 -220 -4 -2 -8 -10
-8 -18 0 -8 -4 -14 -10 -14 -5 0 -10 -7 -10 -15 0 -8 -4 -15 -9 -15 -7 0 -14
-16 -26 -60 0 -3 -4 -16 -8 -30 -4 -14 -13 -43 -19 -65 -6 -22 -16 -45 -21
-52 -5 -7 -6 -17 -3 -22 4 -5 2 -12 -4 -16 -6 -4 -7 -12 -3 -18 12 -19 13 -78
1 -71 -6 4 -6 -1 1 -13 6 -11 8 -23 5 -26 -16 -16 -20 -212 -4 -212 8 0 4
-152 -5 -157 -6 -5 -5 -8 3 -8 7 0 10 -5 7 -10 -3 -6 -9 -40 -12 -76 -4 -55
-3 -65 8 -58 12 7 12 5 0 -9 -7 -9 -10 -17 -5 -17 5 0 10 -19 11 -43 1 -23 2
-63 3 -89 2 -30 6 -45 13 -41 6 4 7 1 1 -8 -12 -20 -14 -39 -3 -39 5 0 5 -10
-1 -24 -5 -13 -6 -26 -3 -29 5 -6 13 -77 13 -124 0 -13 5 -23 11 -23 6 0 7 -6
0 -17 -6 -11 -5 -26 1 -42 6 -15 10 -41 9 -58 0 -19 5 -33 11 -33 9 0 9 -3 1
-11 -7 -7 -8 -21 -2 -42 5 -17 10 -45 11 -64 1 -18 6 -33 11 -33 4 0 5 -6 0
-13 -11 -17 -13 -37 -3 -37 11 0 7 -33 -5 -42 -6 -5 -6 -8 1 -8 6 0 11 -6 11
-12 0 -7 4 -31 8 -53 4 -22 7 -48 7 -58 -1 -9 3 -17 8 -17 4 0 6 -9 3 -20 -3
-11 -1 -20 3 -20 5 0 8 -36 8 -80 -1 -44 2 -80 7 -80 8 0 8 -2 11 -87 0 -29 4
-53 8 -53 4 0 6 -13 4 -30 -2 -16 1 -30 7 -30 6 0 6 -6 -1 -19 -6 -11 -6 -22
-1 -25 5 -3 7 -24 5 -45 -2 -22 0 -42 5 -45 5 -3 7 -19 5 -36 -2 -16 1 -30 7
-30 6 0 8 -4 4 -9 -8 -14 -13 -71 -6 -71 4 0 8 -14 9 -31 2 -22 -1 -28 -10
-23 -9 6 -9 3 1 -9 7 -9 11 -26 8 -37 -3 -11 -1 -20 4 -20 6 0 5 -8 -1 -20 -9
-16 -8 -20 5 -20 10 0 13 -4 8 -12 -11 -19 -12 -37 -3 -43 5 -3 6 -15 4 -28
-7 -26 -7 -35 -1 -62 2 -11 0 -26 -6 -33 -7 -9 -7 -16 -1 -20 5 -4 11 -36 12
-72 2 -36 7 -69 12 -74 5 -5 5 -17 -1 -28 -7 -12 -6 -18 1 -18 6 0 8 -5 4 -12
-9 -15 -12 -88 -3 -88 8 0 5 -33 -5 -49 -5 -8 -3 -16 5 -21 10 -7 10 -12 0
-23 -9 -12 -9 -16 1 -19 10 -4 10 -8 -1 -21 -7 -10 -9 -17 -4 -17 12 0 11 -63
-2 -72 -6 -5 -6 -8 2 -8 12 0 11 -38 -1 -58 -3 -6 -2 -13 4 -17 5 -3 10 -15
10 -26 0 -13 -4 -18 -12 -13 -7 5 -8 3 -2 -7 10 -17 14 -80 6 -94 -10 -16 -11
-36 -2 -30 11 7 9 -137 -2 -152 -5 -6 -5 -13 0 -17 5 -3 9 -19 10 -36 0 -19
-3 -28 -10 -24 -7 5 -8 2 -2 -7 5 -8 10 -25 12 -37 2 -17 -1 -22 -10 -16 -10
6 -10 4 -3 -7 12 -16 13 -98 2 -116 -5 -8 -3 -13 4 -13 8 0 8 -4 -1 -15 -7 -8
-8 -15 -3 -15 10 0 10 -41 -1 -58 -4 -7 -2 -12 4 -12 8 0 7 -6 -1 -21 -9 -17
-8 -23 2 -30 12 -7 12 -9 0 -9 -11 0 -11 -3 -1 -15 10 -12 9 -16 -5 -21 -13
-5 -14 -9 -3 -15 10 -7 10 -9 0 -9 -9 0 -10 -5 -3 -19 6 -10 7 -21 4 -25 -4
-3 -7 -21 -8 -39 0 -17 -5 -38 -9 -46 -6 -9 -5 -12 1 -8 6 4 10 -6 9 -23 -1
-20 -5 -29 -14 -25 -9 3 -10 0 -2 -15 6 -11 7 -20 3 -20 -4 0 -8 -27 -8 -60 0
-33 -4 -60 -10 -60 -5 0 -3 -5 5 -10 10 -6 11 -10 3 -10 -9 0 -10 -7 -4 -23 5
-13 6 -29 1 -36 -4 -7 -5 -22 -2 -34 4 -14 2 -18 -7 -12 -10 6 -11 3 -2 -13 8
-16 7 -21 -5 -26 -12 -5 -14 -9 -5 -20 8 -10 8 -16 -2 -25 -8 -6 -13 -24 -12
-40 1 -18 -2 -28 -8 -24 -6 4 -8 -2 -5 -15 4 -12 1 -22 -4 -22 -7 0 -7 -4 0
-13 7 -8 6 -18 -3 -31 -8 -11 -11 -26 -7 -35 7 -15 8 -34 2 -56 -2 -5 -4 -17
-4 -25 -1 -8 -7 -14 -13 -13 -6 1 -10 -6 -10 -15 0 -43 -3 -53 -15 -46 -8 5
-7 0 2 -11 12 -15 12 -17 1 -10 -11 6 -13 3 -9 -13 4 -12 2 -22 -3 -22 -5 0
-9 -5 -9 -11 0 -5 5 -7 11 -4 6 4 5 -2 -2 -13 -7 -12 -17 -19 -21 -16 -4 3 -5
-1 -2 -9 3 -8 0 -18 -5 -22 -6 -3 -8 -11 -5 -17 5 -8 1 -9 -10 -5 -14 5 -15 3
-6 -12 7 -14 6 -21 -2 -23 -9 -3 -8 -17 3 -54 7 -27 14 -59 13 -71 0 -13 3
-23 7 -23 3 0 5 -14 4 -30 -1 -17 2 -30 7 -30 6 0 6 -6 -1 -14 -8 -10 -9 -16
-1 -21 7 -4 7 -12 0 -25 -7 -13 -7 -21 0 -25 6 -4 7 -12 3 -18 -12 -17 -7
-105 8 -132 3 -5 6 -25 8 -44 1 -19 5 -39 8 -45 10 -16 11 -46 1 -52 -4 -3 -5
-11 -1 -17 4 -6 8 -45 10 -87 2 -41 4 -81 5 -88 1 -10 856 -12 4256 -10 3773
3 4256 5 4259 18 4 12 3 12 -5 1 -7 -10 -11 -2 -14 28 -2 22 0 41 5 41 5 0 6
7 3 16 -3 8 -2 12 4 9 17 -11 11 7 -7 21 -17 13 -17 14 1 7 15 -5 17 -3 10 8
-4 8 -10 28 -11 44 -6 58 -7 65 -15 65 -4 0 -5 6 -2 14 3 7 -2 21 -11 30 -9 9
-14 23 -11 31 3 8 1 17 -5 20 -5 4 -7 11 -4 16 4 5 2 9 -3 9 -4 0 -9 14 -10
30 -4 60 -4 61 -20 47 -13 -10 -14 -9 -4 9 6 12 7 26 2 34 -5 8 -6 18 -4 22 3
4 1 8 -3 8 -8 0 -14 27 -17 77 0 12 -5 21 -11 20 -5 -1 -9 8 -7 21 2 12 -2 22
-9 22 -7 0 -9 3 -6 7 4 3 0 17 -9 31 -9 13 -11 21 -5 18 6 -4 11 -3 11 3 0 5
-5 13 -10 16 -6 4 -7 12 -3 18 12 19 11 51 -1 59 -7 5 -5 8 6 8 11 0 15 6 11
20 -3 11 -10 17 -15 14 -6 -4 -2 5 7 20 16 24 16 26 0 32 -13 5 -14 9 -3 15
10 7 10 9 1 9 -7 0 -13 11 -13 24 0 14 -5 28 -11 31 -6 4 -8 13 -5 21 3 7 -1
20 -9 27 -11 11 -11 17 -2 27 9 10 9 11 0 6 -12 -7 -18 17 -14 51 1 7 -3 22
-9 33 -8 15 -8 20 2 20 9 0 10 2 1 8 -6 4 -13 34 -16 67 -3 33 -6 65 -8 70 -4
18 19 62 36 69 10 3 13 11 9 18 -5 7 -9 36 -10 65 -1 29 -6 58 -10 65 -5 7 -9
18 -11 23 -10 47 -13 56 -19 67 -4 7 -3 8 5 4 8 -5 11 2 9 22 -1 17 4 38 12
47 12 14 12 18 -1 26 -11 7 -11 9 4 9 14 0 16 4 8 19 -6 10 -7 21 -4 25 3 3
-1 6 -11 6 -9 0 -14 5 -11 10 4 6 3 16 -2 23 -11 14 -11 27 0 45 5 7 4 12 -2
12 -6 0 -11 5 -11 11 0 5 6 7 13 3 9 -6 9 -4 1 7 -6 8 -11 52 -12 98 -1 56 -7
93 -17 108 -9 13 -11 23 -5 23 5 0 8 10 6 23 -2 12 -10 21 -17 19 -11 -3 -12
-1 -1 9 6 7 12 19 12 27 0 8 -5 10 -12 6 -10 -6 -10 -5 -1 7 8 10 9 19 3 25
-6 6 -11 22 -12 37 -1 15 -5 27 -8 27 -3 0 -6 19 -7 43 0 23 -8 55 -17 71 -8
16 -13 33 -10 38 3 4 2 8 -3 8 -4 0 -9 19 -9 41 -1 23 -8 45 -15 50 -12 7 -11
9 1 9 12 0 12 2 2 9 -7 4 -12 12 -11 17 4 21 -2 45 -9 40 -4 -2 -9 4 -9 15 -1
13 2 17 10 12 7 -4 6 0 -2 10 -7 9 -11 26 -8 37 3 13 0 20 -9 20 -8 0 -11 6
-8 15 4 8 3 23 -1 33 -5 9 -7 25 -6 36 2 10 -2 16 -7 12 -5 -3 -9 8 -10 24 0
16 -5 37 -10 47 -5 10 -7 24 -5 31 3 6 -1 12 -7 12 -10 0 -10 4 0 15 7 8 8 15
3 15 -5 0 -10 7 -11 15 -1 8 -3 22 -4 30 -1 8 -6 15 -12 15 -6 0 -4 5 4 10 12
8 12 10 1 10 -8 0 -12 3 -8 6 3 3 -1 24 -9 46 -7 21 -13 42 -13 46 1 4 1 9 0
12 -2 3 -4 20 -7 39 -2 19 -10 41 -17 50 -10 12 -9 13 3 6 13 -8 13 -6 1 8 -7
9 -11 24 -7 32 3 8 0 15 -6 15 -6 0 -8 3 -5 6 3 4 2 15 -4 25 -7 14 -6 19 3
19 10 0 10 2 -1 9 -7 5 -11 13 -8 18 3 5 0 21 -7 35 -10 19 -11 29 -3 37 7 7
7 11 1 11 -9 0 -15 30 -18 88 -1 12 -5 22 -10 22 -4 0 -6 6 -3 14 3 7 0 19 -6
26 -9 10 -9 11 3 5 12 -7 13 -6 3 7 -7 8 -10 18 -6 21 3 4 1 7 -7 7 -10 0 -10
3 -1 14 8 10 9 16 1 21 -6 4 -10 12 -8 18 1 7 -2 23 -7 37 -8 26 -12 47 -14
93 -1 18 -5 26 -12 21 -8 -5 -8 -1 0 14 8 14 8 23 1 27 -8 5 -8 11 -1 19 7 9
7 16 0 23 -9 9 -17 65 -23 155 0 15 -4 30 -8 33 -4 4 -4 13 -1 21 3 8 0 14 -7
14 -10 0 -10 3 -1 14 9 11 10 20 1 35 -8 16 -8 21 1 21 8 0 9 4 0 13 -8 10 -7
17 2 27 10 10 9 11 -2 5 -11 -6 -13 -4 -8 8 3 9 1 18 -6 21 -8 3 -7 5 2 5 11
1 10 6 -5 23 -10 12 -13 18 -6 14 8 -5 12 0 12 13 0 12 -6 21 -12 21 -9 0 -8
4 2 10 8 5 11 10 5 10 -6 0 -10 32 -9 78 0 42 -2 81 -5 87 -3 5 -5 52 -6 105
0 52 -4 100 -8 107 -4 6 -1 14 5 16 10 4 10 6 0 6 -10 1 -10 6 -2 21 6 11 7
20 2 20 -14 0 -8 142 7 168 15 28 21 67 23 143 1 46 -3 61 -22 80 -22 24 -22
27 -15 184 18 429 19 505 3 505 -4 0 -8 9 -8 20 0 11 -5 20 -12 20 -8 0 -9 3
-1 11 7 7 6 21 -2 47 -10 28 -10 39 -2 44 8 5 8 8 1 8 -6 0 -9 18 -8 42 1 24
-3 49 -10 57 -8 12 -8 13 2 7 8 -5 12 3 13 28 2 47 3 53 10 60 3 3 2 29 -3 58
-4 29 -9 70 -10 91 -2 20 -6 37 -11 37 -4 0 -3 9 3 20 8 14 8 20 0 20 -7 0 -8
6 0 19 7 14 7 22 0 26 -6 4 -7 11 -4 17 4 5 8 29 11 51 7 60 9 70 16 87 4 8 8
24 10 35 1 11 6 26 10 33 5 6 4 12 -1 12 -8 0 -8 143 1 233 2 21 1 40 -4 42
-4 3 -5 14 -2 24 3 10 0 22 -6 25 -6 4 -11 12 -11 17 0 6 5 7 12 3 7 -4 8 -3
4 4 -16 26 -30 182 -16 182 3 0 6 9 6 20 0 11 -4 20 -9 20 -5 0 -5 6 1 13 6 7
11 53 12 102 2 125 2 122 -19 142 -17 16 -31 52 -33 91 -1 6 -5 12 -10 12 -5
0 -5 7 0 16 5 9 7 25 5 34 -3 10 0 21 7 25 8 5 7 11 -2 23 -11 13 -11 14 1 7
11 -6 13 -2 9 19 -4 18 -2 26 6 23 7 -3 12 3 12 13 0 10 -5 16 -11 12 -5 -3
-4 1 2 10 7 8 10 18 6 21 -3 4 -1 7 5 7 7 0 12 9 12 20 0 11 5 20 11 20 5 0 7
5 4 10 -4 6 -1 18 7 27 11 14 11 16 -2 8 -12 -7 -13 -6 -3 6 10 12 10 18 1 27
-9 9 -7 11 9 8 12 -3 20 1 20 9 0 8 -4 12 -8 9 -4 -2 -1 9 7 26 9 16 12 35 8
41 -4 7 -3 9 4 5 6 -4 12 4 14 21 2 20 8 28 21 27 18 -2 18 -1 0 19 -10 12
-12 17 -4 12 11 -6 13 -4 8 8 -4 10 -1 17 6 17 8 0 6 4 -3 10 -10 6 -11 10 -2
10 6 0 12 7 12 16 0 8 4 12 10 9 6 -3 7 1 4 9 -4 10 -1 16 7 16 7 0 9 3 6 7
-4 3 -2 13 5 20 9 11 9 17 -3 24 -11 7 -8 9 10 9 19 0 23 4 19 25 -3 13 -2 22
2 20 11 -7 22 24 13 37 -3 7 -1 8 5 4 7 -4 12 -2 12 3 0 21 2 26 12 38 6 7 7
13 2 13 -5 0 -3 4 4 9 7 4 14 17 15 29 0 11 5 18 9 16 7 -5 9 1 12 39 1 17 19
36 29 30 4 -2 7 -1 6 4 -5 29 2 55 15 50 9 -4 12 0 9 13 -3 10 0 21 7 25 8 5
8 10 -1 21 -10 12 -9 13 5 8 15 -6 18 -2 20 29 1 6 5 15 10 18 5 4 10 17 11
30 4 39 5 40 15 34 9 -6 12 -2 14 28 1 6 10 20 21 30 11 10 14 16 8 12 -9 -4
-11 -1 -7 9 3 9 10 16 15 16 4 0 6 6 3 14 -3 7 2 20 10 29 19 19 21 31 4 22
-7 -4 -4 1 6 9 11 9 16 16 10 16 -5 0 -1 7 10 15 10 7 15 18 11 24 -3 6 2 11
12 12 10 0 13 3 6 6 -7 2 -13 9 -13 14 0 6 5 7 10 4 10 -6 14 7 11 34 -2 7 2
10 8 6 6 -3 11 1 11 9 0 9 6 16 13 16 8 0 7 4 -3 10 -10 6 -11 10 -2 10 6 0
12 7 12 16 0 9 5 12 12 8 7 -5 9 0 6 14 -4 13 1 27 13 38 11 10 17 24 15 31
-3 7 1 13 10 13 8 0 13 4 10 9 -4 5 0 11 6 14 10 3 10 8 -2 23 -8 10 -11 16
-6 12 10 -8 51 11 42 19 -3 4 0 13 7 21 10 13 9 15 -5 9 -10 -3 -18 -4 -18 -1
0 2 11 9 25 14 15 6 23 15 19 23 -3 8 3 17 13 21 15 6 15 8 3 16 -10 7 -11 10
-2 10 6 0 12 7 12 16 0 11 5 14 16 10 12 -4 15 -2 10 9 -3 8 -1 15 4 15 6 0
10 7 10 15 0 8 7 15 15 15 9 0 12 6 9 15 -4 8 -1 15 6 15 15 0 41 26 33 34 -6
6 22 10 41 7 5 -1 3 5 -4 14 -7 9 -9 15 -4 14 17 -4 64 13 58 22 -4 8 25 14
49 10 4 0 7 3 7 8 0 5 11 8 25 6 14 -1 25 1 25 5 0 4 7 11 16 14 10 4 13 2 8
-7 -5 -8 -2 -7 9 2 9 7 26 11 37 8 11 -3 18 -2 15 3 -6 10 19 20 49 20 12 0
28 6 35 12 11 11 12 10 6 -1 -5 -9 1 -7 19 4 14 10 26 15 26 12 0 -3 24 4 53
15 28 10 57 21 62 22 6 2 23 8 38 15 16 6 34 8 40 4 7 -3 9 -3 5 2 -8 9 73 55
97 55 8 0 15 5 15 10 0 6 7 10 15 10 8 0 15 5 15 10 0 6 5 10 11 10 6 0 24 9
40 21 16 11 29 18 29 14 0 -3 13 8 30 25 41 42 71 160 39 160 -16 0 -39 26
-39 45 0 9 5 13 10 10 6 -3 10 0 10 8 0 8 12 23 27 33 17 10 23 19 15 22 -7 2
-10 8 -7 13 3 4 -10 8 -29 7 -36 -1 -70 17 -60 33 3 5 0 9 -5 9 -6 0 -11 8
-11 18 0 10 -3 22 -7 26 -8 8 -13 28 -17 81 -4 46 -14 75 -27 75 -6 0 -5 9 1
20 6 11 7 20 3 20 -4 0 -2 5 5 12 7 7 12 22 12 35 0 13 6 23 13 23 9 0 9 2 -1
8 -9 6 -7 13 8 30 11 12 20 24 20 27 0 3 0 6 1 8 6 20 5 37 -2 37 -5 0 -8 3
-8 8 3 20 -2 32 -15 32 -8 0 -17 9 -21 19 -3 11 -19 26 -35 33 -17 7 -30 15
-30 18 0 6 -7 7 -83 10 -54 3 -72 21 -53 54 6 12 13 23 16 26 3 3 16 26 29 52
13 26 28 45 34 41 5 -3 8 0 5 8 -2 7 11 27 29 43 18 17 33 39 33 50 0 10 8 25
17 32 10 7 18 18 18 26 1 7 6 12 12 11 7 -2 15 7 19 20 4 12 16 28 26 36 12 8
17 19 13 29 -3 9 -3 14 0 10 8 -7 45 27 45 41 0 6 5 13 12 17 7 5 8 3 3 -6 -6
-9 -4 -11 4 -6 7 5 10 14 7 22 -3 8 1 14 9 14 8 0 22 13 31 29 10 17 21 28 26
25 7 -5 12 10 9 29 -1 5 3 6 8 3 5 -3 15 2 22 11 12 14 12 16 0 8 -10 -5 -12
-4 -7 3 4 7 13 12 21 12 7 0 17 9 20 20 3 11 11 20 16 20 5 0 9 7 9 16 0 8 4
13 9 10 12 -8 33 19 23 29 -4 5 -1 5 6 1 6 -4 12 -2 12 4 0 6 5 8 12 4 6 -4 9
-3 5 2 -3 5 1 18 9 29 8 10 14 15 14 10 0 -5 13 6 28 23 16 18 35 32 43 32 11
0 11 2 -1 10 -11 7 -12 10 -2 10 18 0 43 26 34 35 -4 4 -2 6 3 5 19 -4 36 0
32 8 -4 7 26 40 40 45 5 1 7 6 5 10 -1 5 2 6 7 2 6 -3 15 4 21 15 6 11 18 20
26 20 8 0 12 5 9 10 -3 6 0 10 8 10 8 0 18 7 21 16 3 8 11 12 17 9 6 -4 13 2
16 14 3 12 12 21 19 21 8 0 19 9 26 20 7 11 18 20 25 20 7 0 13 7 13 16 0 8 4
12 10 9 5 -3 24 9 42 27 18 18 34 32 36 30 7 -7 71 51 66 59 -3 5 2 6 10 3 9
-3 16 -1 16 5 0 6 5 11 10 11 6 0 23 11 38 25 61 57 65 61 57 45 -4 -8 6 -1
22 15 28 29 43 37 70 38 7 0 11 3 8 5 -5 5 74 67 85 67 6 0 49 31 88 62 15 13
35 23 45 23 9 0 17 5 17 10 0 6 7 10 15 10 8 0 15 5 15 10 0 6 6 10 14 10 7 0
19 7 26 15 7 8 16 13 20 10 4 -2 17 5 28 16 12 11 22 17 22 13 0 -4 8 1 19 10
10 9 28 18 39 19 11 0 18 5 16 9 -3 4 2 8 10 8 9 0 16 5 16 11 0 6 7 9 15 5 8
-3 15 -2 15 2 0 4 17 16 38 27 20 11 43 25 50 32 7 7 19 10 27 7 8 -4 15 -2
15 3 0 6 18 16 40 23 21 7 37 17 34 21 -3 5 4 9 15 9 27 0 52 11 46 20 -3 5 5
6 17 2 14 -3 19 -2 14 6 -6 11 12 17 37 13 4 0 7 3 7 8 0 5 10 12 23 16 29 10
157 12 157 3 0 -5 5 -8 11 -8 5 0 7 5 3 11 -4 7 1 7 16 -1 15 -8 20 -8 16 -1
-5 7 5 11 28 11 22 0 36 5 36 13 0 8 4 7 10 -3 6 -10 10 -11 10 -2 0 6 8 12
18 12 10 0 24 6 31 13 11 10 12 9 6 -3 -6 -12 -5 -13 6 -2 7 6 21 12 30 12 9
0 22 7 29 15 7 8 16 12 21 9 5 -3 9 0 9 5 0 6 9 11 20 11 11 0 25 9 32 19 6
10 17 17 25 14 7 -3 15 2 19 10 3 8 19 21 35 27 16 7 29 16 29 21 0 5 6 9 13
9 8 0 22 9 32 20 10 11 24 20 32 20 8 0 11 5 8 10 -3 6 3 10 13 10 11 0 25 7
32 14 6 8 27 20 46 26 19 6 34 15 34 19 0 4 6 8 13 9 43 5 77 16 77 23 0 5 7
9 15 9 19 0 55 31 55 47 0 7 7 13 15 13 8 0 15 3 15 8 0 9 119 70 150 76 8 2
24 6 35 10 52 20 72 26 100 29 17 2 37 6 45 10 61 23 143 48 168 50 17 1 28 6
25 11 -5 8 22 6 125 -10 23 -3 45 -10 48 -15 3 -5 23 -9 44 -9 21 0 40 -4 42
-9 2 -6 24 -11 51 -12 26 -2 47 -6 47 -10 0 -6 32 -10 93 -10 9 0 15 -4 13 -8
-3 -4 3 -7 12 -7 73 0 112 -5 107 -14 -3 -6 3 -10 14 -10 11 0 23 -5 26 -10 4
-6 12 -9 18 -8 19 4 57 -25 57 -44 0 -9 4 -18 9 -20 9 -3 18 -69 28 -228 9
-132 6 -236 -7 -260 -17 -32 -82 -59 -160 -67 -25 -2 -65 -14 -90 -25 -24 -11
-59 -20 -77 -20 -18 0 -33 -4 -33 -9 0 -5 -6 -9 -13 -9 -22 0 -78 -31 -84 -46
-3 -8 -10 -14 -17 -14 -13 0 -54 -83 -61 -125 -3 -18 3 -44 15 -67 11 -21 18
-38 16 -38 -3 0 0 -17 6 -37 17 -62 34 -72 135 -74 48 -1 102 1 119 5 44 11
51 -16 22 -80 -21 -45 -23 -63 -22 -176 1 -70 4 -131 7 -135 3 -4 10 -28 17
-53 7 -25 21 -53 31 -63 10 -10 19 -22 19 -26 0 -7 11 -12 48 -21 4 -1 13 -6
20 -12 7 -6 15 -8 19 -5 3 4 12 2 20 -4 10 -9 13 -8 13 0 0 7 3 10 8 7 4 -2
18 2 32 9 22 12 27 10 54 -19 21 -21 41 -31 61 -31 26 0 65 -26 65 -44 0 -12
60 -42 70 -36 6 3 10 0 10 -7 0 -9 3 -9 8 -2 19 28 46 32 81 13 45 -24 56 -24
81 1 11 11 20 17 20 13 0 -4 7 3 16 15 8 12 12 27 9 32 -3 6 -1 10 5 10 7 0
10 6 7 13 -2 6 0 21 6 32 6 11 9 39 8 63 -2 26 2 42 9 42 6 0 8 5 5 10 -3 6 3
10 14 10 12 0 21 -4 21 -10 0 -5 11 -10 25 -10 27 0 59 -42 70 -91 6 -25 48
-76 91 -110 20 -15 44 -18 178 -20 22 0 43 6 47 13 6 8 9 9 9 2 0 -9 9 -8 33
1 57 21 76 30 75 35 -2 14 15 50 23 50 6 0 8 4 5 8 -11 18 67 11 92 -8 13 -11
33 -20 43 -20 9 0 19 -5 21 -11 5 -14 111 -14 116 0 2 6 8 8 14 5 9 -6 25 12
61 69 10 16 13 26 7 22 -5 -3 -10 -1 -10 4 0 6 7 11 15 11 8 0 15 4 15 8 0 5
18 14 40 21 46 14 60 34 60 91 0 30 -3 39 -12 34 -9 -5 -9 -2 1 9 7 9 9 17 4
17 -5 0 -14 15 -20 34 l-10 34 31 -5 c17 -3 35 -9 40 -14 6 -5 18 -9 28 -9 10
0 18 -4 18 -8 0 -8 85 -6 108 3 6 2 12 1 12 -4 0 -5 27 -9 60 -9 33 0 60 4 60
8 0 10 51 7 68 -4 17 -11 83 -10 91 1 3 4 26 9 51 10 44 2 83 16 108 41 7 6
18 12 23 12 6 0 7 5 3 12 -4 6 -3 8 3 5 6 -4 21 1 34 11 13 10 36 24 52 31 15
8 27 18 27 23 0 4 5 8 11 8 13 0 49 38 49 52 0 4 3 7 8 5 17 -5 55 42 49 62
-3 12 -1 19 4 15 5 -3 9 4 9 15 0 11 5 23 11 26 6 4 8 13 5 21 -3 8 -1 14 4
14 6 0 10 12 10 28 0 21 -2 24 -10 12 -6 -9 -10 -10 -10 -3 0 6 5 15 10 18 6
3 10 14 10 23 0 19 58 72 80 72 31 1 78 57 71 85 -2 6 -5 23 -8 38 -2 16 -12
38 -21 49 -27 34 -89 89 -97 87 -3 0 -34 13 -69 30 -35 17 -82 32 -105 33 -22
2 -41 5 -41 8 0 3 -10 6 -22 7 -20 2 -37 18 -38 36 0 4 11 17 25 29 13 11 22
25 19 30 -3 4 0 8 5 8 6 0 11 6 11 14 0 8 14 23 30 33 17 9 30 23 30 31 0 7 4
11 9 8 4 -3 13 5 19 18 11 24 7 71 -8 112 -6 15 -5 26 1 30 15 9 89 10 89 2 0
-4 11 -3 24 2 13 5 26 7 29 4 2 -2 10 2 17 11 7 8 19 15 27 15 7 0 16 7 19 15
4 8 10 12 15 9 5 -3 12 2 15 10 3 9 10 14 15 11 10 -7 31 30 22 39 -3 3 -1 6
5 6 9 0 9 6 0 25 -8 19 -8 31 0 48 23 47 30 93 17 118 -7 13 -11 27 -9 31 3 5
0 8 -7 8 -8 0 -7 5 2 17 12 15 12 16 -1 8 -12 -7 -13 -6 -2 6 7 8 27 15 45 16
87 5 131 16 172 41 25 16 42 31 39 35 -4 4 1 9 10 13 9 3 13 10 10 15 -3 5 0
9 5 9 6 0 11 9 11 20 0 11 -3 20 -7 20 -18 0 -13 80 7 112 11 18 20 49 20 68
0 19 4 40 8 46 6 9 78 42 92 42 21 0 92 25 104 37 8 8 19 15 23 15 5 0 20 12
33 27 25 29 44 110 28 119 -5 3 -4 11 2 19 8 9 7 17 -4 28 -8 8 -12 17 -9 21
4 3 1 6 -5 6 -7 0 -12 7 -12 15 0 8 -4 15 -9 15 -11 0 -23 37 -23 78 0 17 -5
32 -10 32 -5 0 -7 4 -3 9 8 13 -35 51 -57 51 -10 0 -18 4 -18 8 0 4 -14 12
-32 17 -38 12 -45 27 -23 49 9 9 14 16 10 16 -4 0 1 7 10 16 9 9 14 23 11 31
-3 8 -2 12 3 9 5 -3 11 7 14 22 6 28 28 62 60 90 9 9 17 20 17 24 0 4 11 24
25 44 14 20 22 40 20 44 -3 5 -1 11 4 14 13 9 5 65 -16 104 -10 19 -35 42 -55
53 -20 10 -40 29 -43 41 -16 53 -31 78 -48 78 -10 0 -16 4 -13 9 3 5 -2 15
-11 22 -14 12 -16 12 -8 -1 7 -13 6 -13 -7 -2 -10 8 -30 10 -54 6 -22 -3 -50
-5 -64 -4 -14 2 -36 3 -50 4 -31 1 -39 19 -33 71 6 47 6 41 4 84 0 19 -4 31
-8 28 -4 -4 -12 7 -20 23 -11 28 -10 34 7 53 11 11 20 28 21 36 0 9 2 28 3 44
1 15 -3 27 -9 27 -5 0 -15 17 -22 37 -9 31 -9 44 4 73 9 19 17 37 18 40 11 31
26 51 62 84 24 21 43 45 43 54 0 8 3 12 7 9 3 -4 14 10 23 31 27 60 17 120
-25 142 -14 7 -25 17 -25 22 0 5 -4 6 -10 3 -6 -3 -10 5 -10 19 0 14 -4 28
-10 31 -5 3 -7 20 -5 38 8 54 11 97 5 97 -3 0 -6 17 -7 37 -2 43 -22 85 -35
77 -5 -3 -6 7 -2 23 3 15 10 49 14 75 5 27 16 58 24 70 11 16 13 25 4 35 -6 7
-8 13 -4 13 9 0 -24 63 -38 72 -6 4 -17 6 -23 3 -7 -2 -13 0 -13 6 0 6 -4 8
-10 4 -11 -7 -40 46 -40 75 0 11 -4 20 -10 20 -5 0 -10 9 -10 20 0 11 -4 20
-9 20 -5 0 -24 14 -42 31 -27 25 -33 39 -34 74 -1 24 -9 55 -19 70 -12 17 -13
24 -5 19 12 -6 12 -5 0 9 -10 13 -11 20 -2 31 19 23 19 73 0 106 -10 16 -24
30 -30 30 -13 0 -28 16 -52 53 -10 15 -24 27 -32 27 -8 0 -15 5 -15 11 0 5 -4
8 -9 5 -5 -4 -12 8 -16 24 -5 24 -14 32 -38 38 -18 3 -35 5 -39 4 -5 -1 -8 3
-8 8 0 6 -10 10 -22 10 -52 -1 -188 -52 -188 -70 0 -6 -6 -10 -13 -10 -7 0
-28 -13 -46 -29 -28 -26 -41 -29 -93 -30 -33 0 -63 -2 -65 -5 -9 -9 -43 14
-43 29 0 7 8 16 18 19 19 6 92 71 93 83 0 5 2 16 4 25 2 10 -6 36 -17 59 -10
22 -19 48 -18 57 0 10 0 50 0 91 -1 67 -4 77 -28 100 -25 25 -44 79 -22 66 6
-3 10 -2 10 4 0 5 -4 13 -10 16 -5 3 3 19 19 35 32 34 52 106 39 141 -11 29
-48 65 -48 47 0 -9 -3 -9 -10 2 -5 8 -17 15 -27 16 -32 1 -60 16 -104 57 -19
17 -19 18 1 40 24 25 35 61 24 78 -4 8 -3 9 4 5 7 -4 12 -2 12 3 0 6 -4 11 -8
11 -4 0 -9 19 -11 42 -1 23 -4 44 -6 47 -3 2 12 25 33 50 42 51 53 101 28 126
-8 8 -19 15 -25 15 -18 0 -13 50 6 57 35 14 129 113 160 170 l32 58 -19 43
c-11 24 -24 41 -30 37 -5 -3 -10 -1 -10 5 0 6 -10 11 -22 10 -44 -4 -65 0 -66
13 -10 102 -25 147 -47 147 -8 0 -15 5 -15 10 0 6 -25 10 -56 10 l-56 0 26 46
c14 26 28 62 30 80 3 18 7 38 10 43 3 5 0 11 -6 14 -10 3 -10 7 0 19 12 15 11
36 -1 113 -5 28 -30 65 -43 65 -11 0 -24 44 -24 82 0 11 -11 33 -25 50 -26 31
-26 72 1 93 19 14 40 107 36 155 -4 35 -9 43 -33 52 -15 5 -31 18 -34 29 -4
10 -13 19 -20 19 -8 0 -12 8 -10 20 2 11 0 20 -6 20 -5 0 -9 10 -9 23 0 22
-31 57 -51 57 -5 0 -7 5 -4 10 3 6 -1 10 -10 10 -11 0 -15 5 -12 15 4 8 2 17
-3 20 -13 8 -13 25 1 25 5 0 7 -5 3 -12 -4 -7 -3 -8 4 -4 9 5 9 13 2 27 -6 10
-7 19 -3 19 4 0 -9 12 -28 26 -31 23 -41 25 -106 21 -39 -2 -75 -1 -80 2 -4 3
-15 20 -23 36 -19 37 -36 56 -44 48 -3 -4 -6 -1 -6 5 0 7 -9 12 -21 12 -11 0
-17 5 -14 10 3 6 -1 10 -9 10 -9 0 -17 8 -18 18 0 9 -2 22 -3 27 -2 6 -3 15
-4 22 -1 16 -53 63 -62 57 -4 -2 -10 0 -14 6 -4 6 -11 7 -17 4 -5 -4 -30 -8
-55 -10 -25 -2 -52 -9 -59 -15 -8 -6 -20 -9 -29 -6 -8 4 -17 2 -21 -4 -9 -15
-41 17 -47 47 -2 15 4 44 16 67 21 43 23 77 5 88 -5 3 -9 9 -9 13 3 19 0 26
-11 26 -20 0 -71 48 -63 60 3 6 9 22 11 37 3 15 21 44 40 65 44 49 85 141 87
195 1 22 5 40 8 38 8 -6 5 28 -5 43 -4 6 -3 12 3 12 10 0 9 25 -2 36 -12 12
-8 26 6 18 9 -6 9 -4 1 7 -6 8 -15 28 -19 44 -5 17 -9 33 -10 38 -2 4 -3 12
-4 17 -2 16 -63 50 -89 50 -13 0 -20 4 -17 10 3 6 -1 10 -10 10 -9 0 -13 5
-10 10 3 6 1 10 -4 10 -6 0 -11 7 -11 15 0 8 -4 15 -10 15 -5 0 -10 5 -10 11
0 12 -25 39 -36 39 -4 0 -15 7 -25 16 -19 17 -109 28 -109 13 0 -5 -10 -9 -23
-9 -13 0 -29 -6 -36 -12 -11 -11 -12 -10 -6 2 8 13 7 13 -8 1 -15 -12 -17 -11
-17 8 0 12 8 36 17 54 20 37 24 56 24 114 0 46 -26 107 -41 98 -6 -4 -10 -1
-10 4 0 6 -7 11 -15 11 -8 0 -15 7 -15 16 0 8 -3 13 -7 11 -5 -3 -7 12 -7 34
1 21 -2 39 -7 39 -4 0 -6 7 -3 15 7 18 -59 85 -84 85 -15 0 -62 -13 -109 -31
-11 -4 -24 -5 -28 -1 -7 7 -12 8 -41 11 -8 0 -13 5 -10 10 6 10 -39 7 -66 -4
-11 -4 -25 2 -42 18 -14 14 -27 22 -30 19 -3 -3 -6 2 -6 11 0 14 -40 35 -49
26 -2 -2 -7 6 -12 19 -5 13 -17 22 -29 22 -11 0 -20 5 -20 10 0 6 -14 10 -31
10 -20 0 -39 8 -50 22 -11 11 -19 22 -19 23 0 14 33 75 40 75 6 0 10 6 10 13
0 7 14 28 31 46 23 26 27 36 17 42 -7 5 -9 9 -5 9 13 0 -25 62 -53 87 -26 24
-33 26 -62 24 -9 -1 -19 3 -23 9 -3 6 -11 8 -16 5 -5 -4 -9 1 -9 9 0 9 -5 16
-12 16 -6 0 -9 3 -5 6 8 9 -14 65 -23 59 -5 -3 -11 -1 -15 5 -17 28 -136 1
-179 -41 -14 -13 -49 -11 -40 2 4 7 1 10 -7 7 -8 -3 -19 2 -25 10 -11 15 -27
21 -74 26 -31 3 -97 -39 -115 -73 -7 -14 -23 -36 -35 -48 -11 -13 -18 -23 -15
-23 3 0 -5 -12 -19 -27 -23 -24 -27 -25 -68 -15 -24 5 -54 10 -67 11 -15 0
-34 12 -49 31 -19 24 -31 30 -62 30 -21 0 -42 -4 -45 -10 -3 -5 -17 -10 -30
-10 -19 0 -29 10 -45 45 -20 44 -31 54 -64 59 -8 1 -18 5 -22 9 -4 3 -15 2
-25 -4 -11 -5 -19 -6 -19 -1 0 14 -80 52 -111 52 -16 0 -29 -4 -29 -8 0 -5 -6
-9 -12 -9 -7 -1 -29 -4 -48 -8 -54 -11 -130 -13 -130 -3 0 15 -55 8 -88 -12
-51 -31 -72 -27 -72 14 0 47 -15 83 -41 96 -17 10 -20 9 -14 -1 6 -8 4 -10 -6
-3 -19 12 -42 11 -51 -1 -5 -7 -11 -6 -15 1 -5 6 -20 14 -34 17 -14 4 -36 22
-49 40 -26 37 -57 44 -99 22 -16 -8 -31 -12 -35 -10 -3 3 -4 2 -1 -1 5 -8 -20
-34 -35 -34 -12 0 -29 41 -32 76 -1 13 -6 24 -10 24 -21 0 -4 46 29 76 20 19
33 34 28 34 -4 0 2 9 14 19 13 11 20 24 17 30 -3 5 -1 11 5 13 6 2 12 25 13
51 0 26 5 47 10 47 4 0 6 6 3 14 -3 7 2 20 11 29 54 51 71 105 51 165 -13 39
-19 48 -63 93 -18 18 -40 30 -60 31 -87 4 -93 16 -72 146 3 17 1 32 -4 32 -6
0 -9 3 -8 8 5 19 -15 52 -32 52 -10 0 -22 5 -25 10 -5 8 -11 8 -20 0 -10 -8
-15 -8 -20 0 -4 6 -15 8 -25 5 -11 -3 -22 0 -27 8 -12 20 -43 31 -95 32 -26 1
-51 5 -55 9 -8 8 23 30 42 31 14 0 15 45 1 45 -6 0 -3 7 7 14 16 13 16 15 -14
40 -36 31 -73 31 -130 1 -19 -10 -44 -23 -56 -29 -13 -6 -23 -14 -23 -18 0 -5
-6 -8 -12 -8 -7 -1 -26 -18 -43 -40 -33 -43 -74 -77 -96 -80 -37 -6 -90 1 -84
10 3 6 1 10 -4 10 -13 0 -10 22 4 32 7 5 7 8 0 8 -10 0 -11 65 -1 107 2 13 0
25 -6 29 -7 4 -6 9 2 14 8 5 7 11 -4 22 -8 9 -12 18 -9 22 4 3 1 6 -6 6 -7 0
-10 4 -7 9 7 11 -41 71 -56 71 -5 0 -16 7 -24 15 -9 8 -13 15 -9 15 3 0 -1 12
-8 28 -8 15 -13 35 -12 45 2 9 -1 17 -6 17 -5 0 -9 5 -9 11 0 5 4 8 9 5 5 -3
8 8 7 24 -1 17 1 30 5 30 13 0 -2 36 -27 65 -13 15 -24 31 -24 35 0 12 -101
29 -112 20 -10 -7 -48 -5 -48 3 0 6 -3 7 -7 4 -3 -4 -12 -2 -19 3 -14 12 -50
22 -79 22 -40 0 -75 -7 -75 -14 0 -4 -6 -8 -13 -8 -7 0 -24 -10 -36 -22 -26
-23 -76 -27 -114 -7 -29 16 -81 59 -70 59 4 0 -7 8 -24 16 -18 9 -34 24 -34
33 -1 9 -2 34 -4 56 -3 61 -14 91 -43 116 -41 36 -79 50 -107 39 -16 -6 -25
-5 -29 3 -3 9 -5 9 -5 0 -1 -7 -8 -13 -17 -13 -9 0 -12 -5 -8 -12 6 -10 4 -10
-7 0 -7 6 -23 12 -36 12 -13 0 -23 5 -23 10 0 6 -21 10 -50 9 -60 -3 -80 12
-75 52 3 18 0 27 -6 23 -6 -3 -9 0 -8 7 7 31 -12 68 -41 83 -21 10 -30 11 -30
3 0 -7 -4 -6 -9 2 -8 13 -12 13 -27 0 -11 -9 -15 -9 -10 -1 5 8 0 12 -13 12
-12 0 -26 9 -33 20 -7 11 -18 20 -25 20 -7 0 -13 4 -13 9 0 5 -17 7 -37 5 -67
-8 -77 -8 -126 0 -48 8 -112 -7 -102 -24 3 -5 1 -11 -5 -15 -5 -3 -10 -2 -10
3 0 6 -9 8 -20 5 -11 -3 -28 -2 -37 2 -33 14 -66 14 -99 0 -18 -7 -36 -10 -40
-7 -4 4 -4 1 0 -5 4 -7 2 -13 -4 -13 -34 0 -110 -91 -110 -132 0 -18 -39 -60
-70 -76 -21 -11 -30 -11 -53 1 -15 8 -24 17 -20 20 3 4 -3 7 -15 7 -12 0 -22
5 -22 11 0 7 -7 8 -17 4 -27 -11 -103 -18 -103 -10 0 12 54 95 62 95 3 0 9 14
13 30 4 17 10 30 15 30 4 0 11 24 14 53 8 58 -7 107 -31 107 -7 0 -13 4 -13 9
0 5 -20 15 -44 22 -25 7 -42 17 -40 21 3 4 -1 8 -9 8 -8 0 -20 13 -27 29 -28
68 -72 79 -169 42 -57 -22 -61 -21 -91 7 -21 20 -34 23 -92 21 -38 -1 -68 -5
-68 -8 0 -3 -11 -11 -25 -18 -19 -8 -23 -8 -18 0 5 9 3 9 -8 1 -8 -5 -27 -9
-44 -7 -16 2 -39 3 -50 3 -11 1 -30 7 -42 15 -12 8 -29 15 -38 15 -9 0 -14 4
-10 9 3 5 -2 17 -11 25 -8 9 -13 16 -9 16 4 0 -1 7 -9 15 -20 21 -73 27 -88
11 -10 -10 -17 -7 -35 15 -13 15 -23 33 -23 40 0 8 -14 22 -30 31 -21 12 -30
25 -32 45 0 15 -2 33 -3 38 -2 6 -3 19 -4 31 -2 32 -41 68 -93 86 -26 8 -45
11 -41 5 4 -6 1 -7 -8 -1 -19 12 -42 11 -51 -1 -5 -6 -8 -5 -8 3 0 15 -96 17
-105 2 -3 -5 -14 -10 -23 -10 -10 0 -23 -9 -30 -20 -18 -30 -58 -26 -78 8 -9
16 -25 34 -36 41 -14 9 -18 9 -13 1 5 -8 0 -8 -16 1 -13 7 -28 12 -32 11 -5
-1 -6 2 -2 8 3 5 1 10 -4 10 -6 0 -11 5 -11 11 0 15 -26 39 -34 32 -3 -4 -6
-1 -6 5 0 7 -15 12 -35 12 -19 0 -35 5 -35 11 0 5 -4 8 -9 4 -5 -3 -12 -1 -15
4 -3 4 -16 9 -30 9 -13 0 -37 9 -53 21 -16 12 -37 20 -48 18 -39 -6 -124 -76
-125 -102 0 -8 -74 -41 -112 -51 -5 -1 -9 -3 -10 -4 -2 -1 -16 -3 -32 -4 -20
-1 -38 8 -62 32 -19 19 -31 39 -28 44 17 27 22 79 8 92 -7 8 -11 16 -8 19 3 3
-7 12 -23 20 -24 13 -32 13 -53 2 -21 -11 -29 -11 -52 1 -16 8 -28 20 -28 28
0 7 23 32 50 55 50 42 50 44 45 88 -7 61 -37 113 -64 113 -6 0 -11 4 -11 8 0
11 -61 32 -80 28 -42 -8 -76 -20 -89 -30 -11 -8 -13 -8 -7 2 4 7 1 12 -8 12
-9 0 -19 1 -23 2 -14 2 -31 33 -26 43 4 5 3 7 -2 3 -4 -4 -16 2 -26 13 -14 16
-25 19 -48 14 -17 -4 -34 -7 -38 -8 -5 -1 -17 -11 -28 -22 -21 -21 -55 -32
-55 -18 0 13 -63 14 -87 1 -13 -6 -23 -18 -23 -25 0 -8 -4 -12 -9 -9 -4 3 -13
-5 -19 -18 -8 -18 -16 -22 -36 -19 -14 3 -28 14 -31 24 -4 10 -12 19 -20 19
-7 0 -15 5 -17 12 -3 8 -25 12 -66 10 -34 -1 -62 2 -62 6 0 5 -9 19 -20 32
-13 15 -20 18 -20 9 0 -11 -2 -11 -10 1 -9 13 -10 13 -10 0 0 -12 -2 -12 -9
-1 -6 10 -10 10 -16 1 -6 -9 -10 -9 -16 1 -5 9 -9 9 -9 3z m9430 -4880 c0 -8
-19 -13 -24 -6 -3 5 1 9 9 9 8 0 15 -2 15 -3z m-12868 -518 c23 -4 58 -30 58
-43 0 -7 5 -13 11 -13 6 0 9 -22 7 -59 -2 -47 -6 -61 -20 -65 -10 -2 -16 -10
-13 -18 11 -29 12 -79 1 -85 -18 -12 -46 -14 -46 -3 0 6 -3 9 -7 9 -20 -3 -34
2 -28 11 3 6 0 10 -7 10 -8 0 -20 10 -28 22 -8 11 -25 30 -37 41 -12 11 -20
23 -18 27 3 5 -2 11 -11 14 -9 4 -14 9 -11 13 4 3 2 14 -4 24 -6 13 -6 19 1
19 5 0 10 10 10 21 0 12 11 32 24 44 14 13 23 25 20 27 -2 3 7 11 21 18 14 7
25 18 25 24 1 6 9 0 20 -12 11 -13 25 -25 32 -26z m-1034 -3335 c51 -1 91 -5
88 -9 -6 -10 11 -11 147 -13 59 0 107 -5 107 -10 0 -5 6 -9 13 -9 7 0 19 -9
27 -20 8 -11 20 -20 27 -20 7 0 13 -4 13 -10 0 -5 11 -21 25 -35 14 -14 23
-25 20 -25 -7 0 12 -24 38 -48 9 -9 17 -20 17 -25 0 -10 42 -71 53 -75 4 -2 5
-7 2 -12 -3 -5 1 -14 8 -22 14 -13 17 -19 25 -50 2 -10 9 -18 14 -18 5 0 6 -4
3 -10 -3 -5 -2 -10 3 -10 5 0 19 -22 32 -50 13 -27 27 -50 32 -50 5 0 7 -4 3
-9 -3 -5 1 -16 9 -24 8 -8 12 -17 9 -21 -4 -3 0 -6 7 -6 7 0 11 -3 7 -6 -3 -4
1 -13 9 -21 8 -8 12 -19 9 -24 -4 -5 -1 -9 4 -9 6 0 11 -6 11 -13 0 -7 11 -29
25 -50 14 -20 23 -37 20 -37 -2 0 11 -30 31 -67 32 -59 90 -188 98 -218 2 -5
8 -23 15 -40 7 -16 15 -43 18 -60 3 -16 10 -35 15 -41 23 -31 6 -114 -30 -140
-23 -17 -108 -17 -140 0 -16 8 -32 12 -36 9 -3 -4 -6 -1 -6 5 0 7 -7 12 -15
12 -8 0 -15 5 -15 10 0 6 -12 10 -27 10 -22 0 -25 2 -13 10 12 8 11 10 -7 10
-13 0 -23 5 -23 11 0 8 -6 7 -17 -2 -9 -8 -14 -9 -10 -3 4 8 -15 12 -60 13
-37 1 -72 6 -78 11 -6 5 -17 5 -25 0 -9 -6 -20 -4 -29 3 -11 9 -13 9 -8 0 5
-8 0 -11 -13 -10 -11 1 -20 5 -20 9 0 4 -7 8 -15 8 -8 0 -30 9 -50 20 -20 11
-40 20 -46 20 -6 0 -17 7 -26 15 -8 8 -19 13 -24 10 -5 -4 -9 -1 -9 4 0 6 -9
11 -20 11 -11 0 -20 3 -20 8 0 4 -15 13 -32 21 -18 8 -45 22 -60 33 -14 10
-31 18 -37 18 -7 0 -21 9 -33 20 -12 11 -28 20 -35 20 -7 0 -13 4 -13 9 0 5
-13 14 -30 21 -16 7 -30 16 -30 21 0 5 -7 9 -15 9 -8 0 -15 5 -15 10 0 6 -8
10 -18 10 -10 0 -24 9 -32 20 -8 11 -20 20 -28 20 -7 0 -19 6 -27 13 -25 23
-55 47 -61 47 -3 0 -11 6 -18 13 -7 6 -28 23 -46 37 -18 14 -49 40 -68 58 -20
17 -40 32 -45 32 -4 0 -5 5 -2 10 3 6 1 10 -5 10 -15 0 -231 219 -249 253 -8
14 -18 24 -23 21 -4 -3 -8 0 -8 7 0 6 -13 25 -30 40 -16 16 -27 29 -23 29 3 0
-4 9 -17 20 -13 11 -20 20 -16 20 4 0 -5 11 -19 25 -42 43 -31 77 30 88 17 3
53 11 80 17 28 6 60 12 73 14 12 1 34 12 47 24 14 12 30 22 35 22 6 0 10 7 10
16 0 8 4 13 9 9 5 -3 12 -1 16 4 5 10 65 -44 65 -59 0 -3 17 -14 38 -24 46
-22 97 -32 87 -17 -3 7 2 11 13 11 12 0 24 11 32 29 10 25 18 30 53 33 37 3
44 7 65 45 20 37 26 41 55 38 18 -2 74 -4 125 -4z m9495 -1115 c8 -20 0 -57
-18 -92 -22 -43 -19 -62 20 -98 19 -19 35 -38 35 -45 0 -6 3 -11 8 -11 13 0
33 -59 29 -87 -2 -15 -11 -45 -20 -65 -10 -21 -18 -46 -20 -56 -4 -29 -36 -72
-53 -72 -8 0 -13 -4 -10 -8 2 -4 -10 -14 -27 -21 -67 -27 -83 -34 -100 -43
-10 -5 -22 -6 -27 -3 -6 4 -10 -1 -10 -9 0 -9 -7 -16 -16 -16 -8 0 -13 -4 -10
-9 4 -5 -7 -15 -24 -23 -17 -7 -33 -21 -36 -30 -3 -10 -9 -18 -13 -18 -4 0
-18 -10 -31 -22 -14 -13 -28 -22 -33 -20 -5 1 -6 -1 -3 -6 5 -8 -37 -52 -49
-52 -2 0 -16 -11 -31 -25 -15 -14 -33 -25 -41 -25 -8 0 -12 -4 -9 -8 3 -5 -15
-19 -41 -32 -25 -12 -55 -33 -66 -46 -11 -13 -24 -21 -29 -18 -4 3 -8 1 -8 -3
0 -5 -16 -17 -35 -27 -19 -11 -35 -23 -35 -28 0 -5 -6 -8 -13 -6 -6 2 -26 -7
-43 -19 -46 -33 -80 -39 -92 -16 -6 11 -7 25 -2 33 5 8 6 18 4 22 -3 4 0 8 6
8 7 0 10 7 6 15 -3 9 0 15 9 15 8 0 15 6 15 14 0 7 7 19 15 26 8 7 12 17 9 22
-3 5 4 12 16 15 14 4 20 12 17 23 -2 10 4 23 14 31 10 7 16 16 13 21 -3 4 0 8
7 8 7 0 10 3 6 6 -3 3 5 18 18 32 13 14 22 29 19 34 -5 7 10 12 28 9 4 0 5 8
3 19 -2 13 2 20 11 20 8 0 13 3 11 8 -7 10 19 32 29 24 4 -4 4 1 1 11 -4 9 -2
17 4 17 6 0 7 5 4 10 -3 6 -1 10 5 10 6 0 8 5 5 10 -3 6 -1 10 5 10 6 0 8 5 5
10 -4 6 -3 10 2 9 19 -3 34 2 29 10 -3 4 6 18 19 31 13 13 22 27 19 31 -3 5 2
9 10 9 9 0 15 3 14 8 -3 14 14 42 23 36 5 -3 9 0 9 7 0 6 10 21 23 33 12 12
40 44 62 71 22 26 52 62 68 78 15 16 27 34 27 39 0 5 5 6 10 3 6 -3 10 -1 10
5 0 6 18 29 40 50 23 22 38 40 35 40 -4 0 0 7 9 15 8 8 22 15 31 15 9 0 14 3
11 8 -2 4 2 16 10 27 8 10 14 16 14 12 0 -5 6 -2 14 5 10 9 11 15 2 20 -6 5
-2 8 12 8 12 0 22 5 22 10 0 16 37 12 43 -4z m-12620 -1658 c11 -5 17 -5 17 2
0 6 7 6 19 -2 11 -7 17 -17 14 -23 -3 -5 0 -4 7 2 9 8 18 9 25 3 6 -5 32 -10
58 -11 25 -2 45 -5 42 -7 -8 -9 60 -40 82 -37 12 1 20 -2 17 -6 -3 -5 1 -10 8
-10 7 -1 18 -2 23 -3 16 -2 59 -28 67 -40 5 -7 8 -7 8 2 0 8 5 10 13 5 6 -4
17 -8 22 -8 6 -1 23 -7 38 -13 16 -7 33 -10 37 -7 5 3 13 -3 19 -13 5 -10 23
-19 41 -20 18 -1 40 -7 50 -12 11 -6 21 -5 30 3 10 9 11 9 6 0 -4 -8 -1 -13 8
-13 9 0 16 -4 16 -8 0 -5 16 -9 35 -10 20 -1 40 -4 45 -7 5 -3 26 -8 47 -11
20 -2 40 -8 43 -12 3 -4 19 -9 35 -11 17 -1 38 -7 47 -12 9 -5 28 -9 42 -9 13
0 26 -4 28 -10 2 -5 15 -11 31 -12 15 -1 27 -6 27 -11 0 -5 6 -7 12 -5 7 3 19
-1 26 -9 7 -7 24 -13 38 -13 13 0 24 -4 24 -10 0 -5 6 -10 14 -10 7 0 26 -7
42 -14 15 -8 31 -13 36 -10 4 3 8 0 8 -5 0 -6 6 -11 14 -11 7 0 49 -19 92 -41
44 -23 89 -47 101 -53 13 -6 23 -14 23 -18 0 -5 5 -8 11 -8 6 0 30 -13 54 -30
24 -16 46 -30 50 -30 3 0 15 -9 27 -20 12 -11 28 -20 35 -20 8 0 11 -4 8 -10
-3 -5 -1 -10 4 -10 6 0 72 -61 146 -135 74 -74 132 -135 128 -135 -3 0 8 -13
25 -30 18 -16 28 -30 24 -30 -4 0 -2 -4 4 -8 17 -11 114 -140 114 -152 0 -5 4
-10 9 -10 5 0 20 -17 32 -37 13 -21 26 -40 29 -43 4 -3 15 -21 26 -40 10 -19
27 -43 37 -52 10 -9 18 -19 18 -22 -1 -9 12 -40 18 -46 13 -11 102 -185 105
-205 1 -5 5 -15 9 -22 21 -33 -23 -49 -69 -25 -10 5 -41 20 -69 33 -27 12 -54
27 -60 31 -5 5 -28 22 -50 39 -35 26 -105 84 -139 114 -6 6 -24 16 -41 24 -16
7 -38 17 -47 22 -10 5 -20 5 -23 -1 -13 -20 -89 -7 -115 20 -17 17 -109 90
-114 90 -3 0 -14 7 -23 16 -10 8 -34 29 -53 46 -33 29 -34 33 -32 92 2 55 0
63 -25 87 -16 14 -43 34 -60 44 -18 11 -33 23 -33 27 0 4 -4 8 -10 8 -5 0 -33
14 -62 31 -31 18 -68 32 -90 33 -21 0 -38 4 -38 9 0 4 -8 2 -18 -4 -31 -19
-84 -2 -177 56 -48 30 -91 55 -96 55 -5 0 -9 3 -9 8 0 9 -62 37 -75 33 -5 -1
-7 0 -3 4 8 8 -76 55 -98 55 -7 0 -14 5 -14 10 0 6 -9 10 -19 10 -11 0 -23 5
-26 10 -3 6 -15 10 -26 10 -10 0 -19 5 -19 10 0 6 -6 10 -14 10 -8 0 -31 9
-53 19 -73 36 -107 50 -115 45 -4 -3 -8 0 -8 5 0 6 -11 11 -25 11 -14 0 -25 5
-25 10 0 6 -9 10 -20 10 -11 0 -20 6 -21 13 0 9 -2 9 -6 -1 -4 -10 -9 -8 -21
5 -17 18 -21 20 -65 27 -12 2 -21 8 -20 13 1 6 -9 8 -22 5 -16 -3 -25 0 -25 8
0 10 -3 10 -15 0 -8 -7 -15 -8 -15 -3 0 6 -10 10 -22 10 -60 1 -69 3 -62 16 5
7 0 6 -11 -3 -15 -12 -17 -12 -10 -1 6 11 4 13 -8 8 -9 -3 -19 -2 -22 4 -4 5
-11 7 -16 4 -5 -4 -9 -3 -9 2 0 4 -17 9 -37 11 -20 1 -41 8 -45 15 -6 9 -8 8
-8 -3 0 -10 -3 -11 -8 -4 -7 11 -40 21 -102 31 -19 3 -41 10 -47 15 -9 7 -13
6 -14 -3 0 -10 -2 -11 -6 -1 -2 6 -14 12 -24 12 -11 0 -17 5 -14 10 3 6 0 10
-8 10 -15 0 -16 23 -3 52 8 18 50 16 75 -5 12 -10 13 -9 6 2 -6 11 -4 13 8 8
8 -3 21 1 27 9 7 8 20 14 29 14 14 0 14 2 1 10 -8 5 -10 10 -4 10 7 0 15 12
19 28 10 36 12 132 3 132 -4 0 -5 7 -3 15 3 8 7 22 10 31 4 12 17 15 52 13 27
-1 56 -6 66 -11z"/>
<path d="M7410 12230 c0 -5 5 -10 11 -10 5 0 7 5 4 10 -3 6 -8 10 -11 10 -2 0
-4 -4 -4 -10z"/>
</g>
</svg>
